<?xml version="1.0" encoding="UTF-8"?>
<svg id="Layer_1" data-name="Layer 1" xmlns="http://www.w3.org/2000/svg" width="417" height="250"  viewBox="0 0 88.82 25.68">
  <defs>
    <style>
      .cls-1 {
        fill: #a46bad;
      }
    </style>
  </defs>
  <path class="cls-1" d="M6.66,16.08c.22-.29,.47-.76,.73-1.4-2.18-1.04-3.28-2.76-3.28-5.13,0-.38,.06-.98,.17-1.82,.07-.56,.39-1.24,.96-2.05,.7-1.02,1.54-1.82,2.53-2.4,1.25-.74,2.61-1.06,4.07-.96,1.34,.1,2.53,.44,3.59,1.02,.42-.24,.81-.45,1.19-.63,.65-.31,1.24-.46,1.75-.46,.49,0,.77,.1,.83,.29,.01,.03,.02,.06,.02,.08,0,.17-.44,.47-1.31,.92-.25,.12-.59,.4-1.02,.83,1.28,1.13,2.17,2.53,2.67,4.19,.26,.88,.4,1.86,.4,2.94,0,2.89-.93,5.12-2.78,6.68-1.21,1.02-2.67,1.52-4.38,1.52-1.53,0-3.03-.37-4.51-1.11-1.22,.92-2.6,1.38-4.11,1.38s-2.66-.44-3.42-1.31c-.5-.58-.75-1.18-.75-1.77,0-.4,.22-.8,.67-1.19,.56-.49,1.27-.73,2.15-.73v.04c1.38,.01,2.66,.36,3.84,1.04Zm-3.71-.02c-.32-.06-.64,.01-.95,.21-.31,.2-.47,.44-.47,.73,0,.26,.15,.52,.46,.75,.38,.29,.76,.44,1.15,.44,.53,0,1.38-.38,2.55-1.15-.75-.45-1.66-.77-2.73-.98Zm4.84-2.34c.6-1.52,1.35-3.01,2.25-4.47,1.22-1.98,2.47-3.53,3.74-4.65-.92-.54-1.91-.81-2.96-.81-1.54,0-2.89,.56-4.03,1.68-1.14,1.12-1.73,2.46-1.75,4.02-.01,.92,.25,1.77,.79,2.55,.49,.72,1.14,1.29,1.96,1.69Zm7.66-7.64c-.22,.29-.56,.73-1.02,1.31-.36,.46-.81,1.41-1.34,2.84-.78,2.16-1.25,3.42-1.4,3.78,.61-.22,1.17-.57,1.67-1.04,.67-.63,1-1.4,1-2.32,0-.26,.17-.4,.52-.4,.17,0,.26,0,.27,.02,.06,.06,.11,.22,.17,.5,.07,.35-.04,.86-.33,1.52-.32,.74-.73,1.31-1.23,1.73-.95,.79-1.85,1.26-2.71,1.4-.33,.61-.83,1.29-1.5,2.02,.51,.12,1.13,.17,1.84,.12,1.79-.1,3.14-1.01,4.03-2.73,.7-1.34,1.08-3.09,1.15-5.26,.04-1.32-.33-2.49-1.11-3.51Z"/>
  <path class="cls-1" d="M20.37,16.14c-.29,0-.44-.15-.44-.46,0-.07,.01-.14,.04-.21,.12-.24,.71-.91,1.75-2.02,.61-.65,1.34-1.57,2.19-2.76,1.06-1.5,1.79-2.76,2.21-3.78,.65-1.6,1.18-2.4,1.56-2.4,.42,0,.87,.45,1.36,1.34,.29,.53,.33,.97,.1,1.34-.07,.14-1.1,2.3-3.09,6.47,2.53-2.57,4.2-3.81,5.01-3.69,.81,.11,1.21,.47,1.21,1.06,0,.32-.12,.71-.38,1.17-.35,.63-.77,.94-1.27,.94-.15,0-.4-.06-.75-.19-.12-.07-.26-.14-.4-.22-.14-.08-.25-.1-.33-.07-.32,.14-.77,.47-1.34,.98,.4-.07,.72-.1,.94-.1,.4,0,.63,.1,.69,.31,.04,.17,.04,.38,0,.65-.04,.21-.08,.42-.13,.65-.07,.54-.03,.88,.13,1,.1,.08,.21,.12,.33,.12,.32,0,.65-.23,1-.69,.4-.53,.71-.79,.92-.79,.1,0,.19,.06,.28,.18s.14,.23,.14,.34c0,.12-.05,.24-.15,.33-.4,.45-.81,.9-1.23,1.36-.77,.82-1.38,1.38-1.86,1.69-.81,.53-1.55,.79-2.23,.79s-1.06-.34-1.15-1.02c-.03-.22,.04-.63,.2-1.23,.16-.6,.24-1.02,.24-1.27s-.06-.38-.17-.38-.28,.13-.5,.39c-.49,.59-.98,1.19-1.48,1.8-.72,.85-1.2,1.35-1.42,1.5-.22,.14-.52,.22-.9,.22-.65,0-.98-.22-.98-.66,0-.53,1.04-2.65,3.13-6.37-1.85,2.46-2.94,3.69-3.26,3.69Z"/>
  <path class="cls-1" d="M38.32,15.62c.28-.12,.54-.33,.79-.6,.17-.19,.36-.29,.58-.29,.29,0,.44,.14,.44,.42,0,.12-.12,.33-.38,.63-.43,.52-.99,.83-1.67,.94-.38,1.04-.97,1.8-1.79,2.27-.56,.32-1.13,.48-1.71,.48-1.32,0-2.17-.34-2.55-1.02-.24-.42-.35-.83-.35-1.25,0-.7,.27-1.18,.81-1.44,.44-.21,.9-.31,1.36-.31,.26,0,.76,.05,1.48,.15,.07-.35,.09-.96,.06-1.84-.01-.78,.04-1.38,.17-1.79-.4,.24-1.04,.85-1.9,1.84-1.11,1.28-1.7,1.96-1.77,2.02-.25,.25-.5,.29-.75,.12-.24-.17-.24-.38,0-.65,.65-.77,1.75-2.01,3.28-3.74,.63-.67,1.31-1.21,2.05-1.63,.74-.42,1.37-.63,1.9-.63,.93,0,1.4,.4,1.4,1.19,0,.29-.12,.55-.35,.77-.24,.22-.49,.33-.75,.33-.07,0-.14,0-.21-.02-.42-.11-.7-.09-.86,.06-.15,.15-.23,.33-.23,.52s.08,.58,.25,1.15c.03,.07,.18,.45,.46,1.15,.17,.42,.25,.81,.25,1.17Zm-3.3,.96c-.93-.11-1.46-.12-1.59-.04-.22,.14-.33,.31-.33,.5,0,.25,.13,.45,.4,.58,.1,.04,.19,.06,.29,.06,.46,0,.87-.37,1.23-1.11Z"/>
  <path class="cls-1" d="M48.71,16.49c-.2-.42-.28-.93-.25-1.54,.04-.9,.41-1.93,1.11-3.07,.77-1.25,1.52-1.88,2.27-1.88,.35,0,.63,.15,.83,.44,.21,.29,.29,.62,.25,.98-.12,1.28-.78,2.75-1.96,4.42,.03,.11,.17,.17,.44,.17,.17,0,.47-.29,.9-.88,.21-.28,.43-.42,.67-.42,.29,0,.44,.14,.44,.42,0,.12-.12,.33-.38,.63-.42,.52-.74,.86-.96,1.02-.54,.43-1.13,.65-1.77,.65-.28,0-.52-.04-.73-.13-.45,.58-.96,1.09-1.54,1.52-.64,.49-1.2,.73-1.67,.73-.83,0-1.36-.51-1.57-1.52-1.22,.95-2.21,1.42-2.96,1.42-.57,0-1.02-.17-1.36-.51s-.5-.77-.5-1.28c0-.43,.12-.86,.35-1.29,.44-.79,.99-1.84,1.63-3.13-1.54,1.85-2.41,2.78-2.61,2.78-.29,0-.44-.14-.44-.42,0-.25,.17-.54,.5-.88,.95-1.1,2.14-2.43,3.57-3.98,.54-.49,1.11-.73,1.71-.73,.5,0,.85,.15,1.04,.46,.11,.17,.17,.35,.17,.54,0,.18-.15,.6-.44,1.26-.31,.7-.97,1.97-1.98,3.83-.11,.2-.17,.4-.17,.63,0,.36,.15,.54,.44,.54,.24,0,.56-.15,.96-.46,0-.07,.02-.17,.05-.31,.03-.14,.05-.24,.05-.31,.22-1.17,.71-2.25,1.46-3.23,.25-.33,.58-.5,1-.5,.57,0,.86,.31,.86,.94,0,.49-.24,1.11-.73,1.88-.4,.63-.85,1.17-1.34,1.63,.01,.71,.3,1.06,.86,1.06,.5,0,1.1-.49,1.79-1.46Z"/>
  <path class="cls-1" d="M61.09,10.27c.28-.56,.42-.84,.42-.86,.21-.47,.47-.75,.79-.83,.22-.06,.57,.17,1.03,.67,.37,.4,.56,.79,.56,1.17,0,.26-.16,.7-.48,1.31-.36,.71-.91,1.76-1.65,3.15-.28,.52-.42,.95-.42,1.31,0,.24,.05,.38,.15,.44,.1,.06,.4-.13,.92-.54,.46-.38,.83-.72,1.11-1.04,.17-.19,.27-.29,.31-.29,.08,0,.18,.07,.29,.21,.11,.14,.17,.26,.17,.35,0,.12-.09,.28-.27,.47-.18,.19-.37,.39-.56,.6-.29,.32-.82,.8-1.58,1.45-.76,.65-1.27,1.05-1.53,1.22-.47,.29-.93,.44-1.38,.44-.35,0-.66-.1-.95-.3s-.43-.51-.43-.93c0-.21,.03-.44,.1-.69-.78,.65-1.43,1.13-1.94,1.42-.51,.29-1.03,.44-1.54,.44s-.94-.16-1.27-.48c-.33-.32-.5-.73-.5-1.23s.13-1.02,.4-1.57c-.31,.03-.5,0-.58-.07-.08-.08-.12-.3-.12-.66,0-.08,.12-.24,.37-.46,.24-.22,.48-.44,.7-.65,.35-.29,.88-.86,1.59-1.69,.43-.61,.82-1.08,1.15-1.4,.61-.56,1.32-.95,2.13-1.19,.36-.11,.76-.17,1.19-.17,.77,0,1.38,.13,1.84,.4Zm-4.47,6.45c.29,0,.72-.29,1.27-.86,.42-.45,.77-.88,1.06-1.31,.67-1.02,1-1.78,1-2.3,0-.33-.14-.5-.42-.5-.38,0-1.08,.72-2.11,2.15-.79,1.11-1.19,1.9-1.19,2.36,0,.31,.13,.46,.38,.46Z"/>
  <path class="cls-1" d="M74.2,13.05c.68-.61,1.59-1.36,2.73-2.25,.32-.19,.64-.39,.96-.58,.32-.19,.6-.29,.83-.29,.38,0,.74,.24,1.09,.71,.06,.08,.08,.19,.08,.31,0,.33-.33,1.13-.98,2.38-.92,1.75-1.38,2.8-1.38,3.13,0,.12,.05,.19,.15,.19,.29,0,.85-.33,1.67-1,.03-.03,.18-.2,.46-.52,.21-.24,.38-.35,.5-.35,.08,0,.17,.05,.26,.16,.09,.1,.14,.2,.14,.28,0,.14-.21,.44-.63,.9-.33,.38-.93,.93-1.77,1.65-.93,.81-1.57,1.28-1.92,1.43-.35,.15-.71,.22-1.09,.22-.81,0-1.26-.31-1.36-.94-.07-.46,.19-1.31,.79-2.57,.38-.72,.75-1.45,1.13-2.17,.06-.12,.08-.22,.08-.29,0-.08-.04-.13-.13-.13-.21,0-.47,.16-.79,.48-.26,.26-.78,.84-1.54,1.73-.88,1.02-1.48,1.76-1.82,2.23-.33,.47-.75,.89-1.25,1.24-.5,.35-.94,.53-1.31,.53-.5,0-.75-.26-.75-.77,0-.24,.11-.54,.33-.9,.33-.56,.51-.86,.54-.92,.56-.97,1.15-2.05,1.79-3.21,.04-.11,.06-.2,.06-.27,0-.1-.04-.15-.13-.15-.19,0-.45,.16-.77,.48-.26,.26-.78,.84-1.54,1.73-.88,1.02-1.48,1.76-1.82,2.23-.33,.47-.75,.89-1.25,1.24-.5,.35-.94,.53-1.31,.53-.5,0-.75-.26-.75-.77,0-.24,.11-.54,.33-.9,.35-.57,.53-.88,.54-.92,.25-.51,.88-1.76,1.9-3.74-.7,.79-1.51,1.7-2.44,2.71-.11,.1-.23,.15-.35,.15-.22,0-.33-.1-.33-.31,0-.1,.04-.2,.12-.31,.74-.88,1.65-2.01,2.73-3.4,1.02-1.59,1.71-2.34,2.09-2.25,.25,.06,.5,.22,.76,.48s.41,.52,.47,.77c.12,.54,.12,1.03,0,1.46-.07,.25-.33,.7-.77,1.36,.49-.47,.94-.9,1.36-1.27,.99-.9,1.71-1.5,2.17-1.77,.32-.19,.64-.39,.96-.58,.32-.19,.6-.29,.83-.29,.38,0,.74,.24,1.09,.71,.06,.08,.08,.19,.08,.31,0,.35-.29,1.05-.86,2.11Z"/>
  <path class="cls-1" d="M79.89,15.87c-.31-.19-.38-.42-.21-.69,.28-.32,.86-1.03,1.73-2.13,.45-.65,.9-1.31,1.36-1.96,.51-.72,.91-1.12,1.19-1.19,.38-.1,.6-.15,.67-.15,.12,0,.26,.08,.4,.25,.61,.72,.92,1.25,.92,1.57,0,.38-.29,1.19-.86,2.44-.53,1.17-.79,1.92-.79,2.25,0,.15,.06,.23,.19,.23,.15,0,.5-.28,1.04-.86,.67-.71,1.13-1.06,1.38-1.06,.29,0,.44,.13,.44,.4,0,.14-.08,.34-.23,.61-.36,.61-1.15,1.4-2.36,2.36-1.31,1.04-2.27,1.56-2.9,1.56-.42,0-.76-.17-1.02-.5-.21-.26-.31-.52-.31-.77,0-.51,.13-1.09,.4-1.73,.14-.35,.62-1.36,1.44-3.05-.56,.7-1.19,1.45-1.9,2.25-.13,.1-.31,.15-.56,.17Zm8.56-10.87c.25,.18,.38,.5,.38,.96,0,.7-.23,1.3-.69,1.83-.46,.52-1.02,.78-1.67,.78-.4,0-.74-.1-1.02-.3-.28-.2-.42-.55-.42-1.03,0-.6,.22-1.19,.67-1.77,.42-.54,.95-.81,1.59-.81,.45,0,.83,.12,1.17,.35Z"/>
</svg>